<svg width="27" height="27" viewBox="0 0 27 27" fill="none" xmlns="http://www.w3.org/2000/svg">
<g clip-path="url(#clip0_656_6845)">
<path d="M1.965 9.5175C2.4129 9.74595 2.88976 9.91247 3.3825 10.0125C3.13423 10.7756 3.00521 11.5725 3 12.375C3.0171 13.5263 3.27327 14.6615 3.75226 15.7086C4.23125 16.7556 4.92262 17.6917 5.7825 18.4575C5.8579 18.5274 5.91812 18.6121 5.95941 18.7063C6.00069 18.8005 6.02217 18.9022 6.0225 19.005V23.01L9.3075 20.9175C9.39914 20.8596 9.50224 20.8222 9.6097 20.808C9.71717 20.7937 9.82644 20.8029 9.93 20.835C11.086 21.194 12.2896 21.3761 13.5 21.375C19.29 21.375 24 17.34 24 12.375C24 7.41 19.29 3.375 13.5 3.375C12.3446 3.37486 11.1952 3.54158 10.0875 3.87C10.0411 3.37201 9.92755 2.88258 9.75 2.415C10.9684 2.05962 12.2308 1.87783 13.5 1.875C20.115 1.875 25.5 6.585 25.5 12.375C25.5 18.165 20.115 22.875 13.5 22.875C12.2624 22.8736 11.0309 22.702 9.84 22.365L5.6925 25.005C5.57928 25.0776 5.4486 25.1185 5.31415 25.1233C5.17971 25.1281 5.04646 25.0966 4.92836 25.0322C4.81026 24.9678 4.71166 24.8728 4.64289 24.7571C4.57413 24.6415 4.53773 24.5095 4.5375 24.375V19.3275C3.59907 18.4273 2.85021 17.3484 2.335 16.1544C1.81979 14.9604 1.54863 13.6754 1.5375 12.375C1.52903 11.406 1.6733 10.4416 1.965 9.5175Z" fill="#F6AE2D"/>
<path d="M18.75 11.625C18.9489 11.625 19.1397 11.704 19.2803 11.8447C19.421 11.9853 19.5 12.1761 19.5 12.375C19.5 12.5739 19.421 12.7647 19.2803 12.9053C19.1397 13.046 18.9489 13.125 18.75 13.125H8.25C8.05109 13.125 7.86032 13.046 7.71967 12.9053C7.57902 12.7647 7.5 12.5739 7.5 12.375C7.5 12.1761 7.57902 11.9853 7.71967 11.8447C7.86032 11.704 8.05109 11.625 8.25 11.625H18.75Z" fill="#F6AE2D"/>
<path d="M16.3125 15.375C16.5114 15.375 16.7022 15.454 16.8428 15.5947C16.9835 15.7353 17.0625 15.9261 17.0625 16.125C17.0625 16.3239 16.9835 16.5147 16.8428 16.6553C16.7022 16.796 16.5114 16.875 16.3125 16.875H10.6875C10.4886 16.875 10.2978 16.796 10.1572 16.6553C10.0165 16.5147 9.9375 16.3239 9.9375 16.125C9.9375 15.9261 10.0165 15.7353 10.1572 15.5947C10.2978 15.454 10.4886 15.375 10.6875 15.375H16.3125Z" fill="#F6AE2D"/>
<path d="M19.29 8.625C19.29 8.82391 19.211 9.01468 19.0704 9.15533C18.9297 9.29598 18.739 9.375 18.54 9.375H8.46004C8.33513 9.37274 8.21276 9.33931 8.10405 9.27775C7.99534 9.21619 7.90373 9.12845 7.83754 9.0225C8.27881 8.6986 8.67044 8.31203 9.00004 7.875H18.54C18.739 7.875 18.9297 7.95402 19.0704 8.09467C19.211 8.23532 19.29 8.42609 19.29 8.625Z" fill="#F6AE2D"/>
<path d="M4.5 8.25C2.42893 8.25 0.75 6.57107 0.75 4.5C0.75 2.42893 2.42893 0.75 4.5 0.75C6.57107 0.75 8.25 2.42893 8.25 4.5C8.25 6.57107 6.57107 8.25 4.5 8.25Z" fill="#F6AE2D"/>
</g>
<defs>
<clipPath id="clip0_656_6845">
<rect width="27" height="27" fill="white" transform="matrix(-1 0 0 1 27 0)"/>
</clipPath>
</defs>
</svg>
