<svg width="38" height="38" viewBox="0 0 38 38" fill="none" xmlns="http://www.w3.org/2000/svg">
<g clip-path="url(#clip0_656_6257)">
<path d="M30.526 10.8056C27.5445 7.82246 23.5796 6.17834 19.3555 6.17676C10.6512 6.17676 3.56724 13.2575 3.56408 21.9619C3.5625 24.7442 4.2897 27.4602 5.67139 29.8536L3.5293 37.7944L11.8021 35.8389C14.1086 37.0972 16.7044 37.7596 19.3476 37.7612H19.3539C28.0567 37.7612 35.1406 30.6789 35.1454 21.9761C35.1485 17.7567 33.5076 13.7903 30.526 10.8056ZM27.0813 27.604C26.7525 28.5257 25.1415 29.4141 24.4175 29.479C23.6935 29.5454 23.0153 29.8062 19.6828 28.4925C15.6721 26.9116 13.1395 22.7997 12.9435 22.5373C12.7458 22.2733 11.3325 20.3984 11.3325 18.4571C11.3325 16.5157 12.3522 15.5609 12.7142 15.1672C13.0762 14.772 13.5031 14.674 13.7671 14.674C14.0295 14.674 14.2935 14.674 14.5228 14.6835C14.8042 14.6946 15.1156 14.7088 15.4112 15.3648C15.7622 16.1458 16.5289 18.0966 16.6269 18.2942C16.7249 18.4918 16.7913 18.7226 16.6601 18.9851C16.5289 19.2475 16.4625 19.4119 16.2665 19.6427C16.0689 19.8735 15.8523 20.1565 15.6752 20.3336C15.4776 20.5296 15.2721 20.7446 15.5013 21.1382C15.7321 21.5334 16.5226 22.825 17.6956 23.87C19.2037 25.2137 20.4732 25.6295 20.8684 25.8287C21.2636 26.0263 21.4929 25.9931 21.7237 25.7291C21.9545 25.4667 22.7101 24.5782 22.9726 24.183C23.235 23.7878 23.499 23.8542 23.861 23.9854C24.223 24.1166 26.1628 25.0715 26.5564 25.2691C26.9517 25.4667 27.2141 25.5647 27.3121 25.7291C27.4101 25.8919 27.4101 26.6824 27.0813 27.604Z" fill="white"/>
</g>
<defs>
<clipPath id="clip0_656_6257">
<rect width="37.9412" height="37.9412" fill="white"/>
</clipPath>
</defs>
</svg>
